<svg width="536" height="92" viewBox="0 0 536 92" fill="none" xmlns="http://www.w3.org/2000/svg">
<path d="M18.476 20.192C18.476 20.7573 18.3427 21.2907 18.076 21.792C17.8093 22.2933 17.3827 22.704 16.796 23.024C16.2093 23.3333 15.4573 23.488 14.54 23.488H12.524V28H10.7V16.88H14.54C15.3933 16.88 16.1133 17.0293 16.7 17.328C17.2973 17.616 17.74 18.0107 18.028 18.512C18.3267 19.0133 18.476 19.5733 18.476 20.192ZM14.54 22C15.2333 22 15.7507 21.8453 16.092 21.536C16.4333 21.216 16.604 20.768 16.604 20.192C16.604 18.976 15.916 18.368 14.54 18.368H12.524V22H14.54ZM28.1996 19.184V28H26.3756V26.96C26.0876 27.3227 25.709 27.6107 25.2396 27.824C24.781 28.0267 24.2903 28.128 23.7676 28.128C23.0743 28.128 22.4503 27.984 21.8956 27.696C21.3516 27.408 20.9196 26.9813 20.5996 26.416C20.2903 25.8507 20.1356 25.168 20.1356 24.368V19.184H21.9436V24.096C21.9436 24.8853 22.141 25.4933 22.5356 25.92C22.9303 26.336 23.469 26.544 24.1516 26.544C24.8343 26.544 25.373 26.336 25.7676 25.92C26.173 25.4933 26.3756 24.8853 26.3756 24.096V19.184H28.1996ZM32.4303 20.496C32.7396 20.0693 33.1609 19.7227 33.6943 19.456C34.2383 19.1787 34.8409 19.04 35.5023 19.04C36.2809 19.04 36.9849 19.2267 37.6143 19.6C38.2436 19.9733 38.7396 20.5067 39.1023 21.2C39.4649 21.8827 39.6463 22.6667 39.6463 23.552C39.6463 24.4373 39.4649 25.232 39.1023 25.936C38.7396 26.6293 38.2383 27.1733 37.5983 27.568C36.9689 27.952 36.2703 28.144 35.5023 28.144C34.8196 28.144 34.2116 28.0107 33.6783 27.744C33.1556 27.4773 32.7396 27.136 32.4303 26.72V28H30.6063V16.16H32.4303V20.496ZM37.7903 23.552C37.7903 22.944 37.6623 22.4213 37.4062 21.984C37.1609 21.536 36.8303 21.2 36.4143 20.976C36.0089 20.7413 35.5716 20.624 35.1023 20.624C34.6436 20.624 34.2063 20.7413 33.7903 20.976C33.3849 21.2107 33.0543 21.552 32.7983 22C32.5529 22.448 32.4303 22.976 32.4303 23.584C32.4303 24.192 32.5529 24.7253 32.7983 25.184C33.0543 25.632 33.3849 25.9733 33.7903 26.208C34.2063 26.4427 34.6436 26.56 35.1023 26.56C35.5716 26.56 36.0089 26.4427 36.4143 26.208C36.8303 25.9627 37.1609 25.6107 37.4062 25.152C37.6623 24.6933 37.7903 24.16 37.7903 23.552ZM43.274 16.16V28H41.45V16.16H43.274ZM46.5968 18.016C46.2661 18.016 45.9888 17.904 45.7648 17.68C45.5408 17.456 45.4288 17.1787 45.4288 16.848C45.4288 16.5173 45.5408 16.24 45.7648 16.016C45.9888 15.792 46.2661 15.68 46.5968 15.68C46.9168 15.68 47.1888 15.792 47.4128 16.016C47.6368 16.24 47.7488 16.5173 47.7488 16.848C47.7488 17.1787 47.6368 17.456 47.4128 17.68C47.1888 17.904 46.9168 18.016 46.5968 18.016ZM47.4928 19.184V28H45.6688V19.184H47.4928ZM49.2795 23.584C49.2795 22.6773 49.4608 21.8827 49.8235 21.2C50.1968 20.5067 50.7088 19.9733 51.3595 19.6C52.0102 19.2267 52.7568 19.04 53.5995 19.04C54.6662 19.04 55.5462 19.296 56.2395 19.808C56.9435 20.3093 57.4182 21.0293 57.6635 21.968H55.6955C55.5355 21.5307 55.2795 21.1893 54.9275 20.944C54.5755 20.6987 54.1328 20.576 53.5995 20.576C52.8528 20.576 52.2555 20.8427 51.8075 21.376C51.3702 21.8987 51.1515 22.6347 51.1515 23.584C51.1515 24.5333 51.3702 25.2747 51.8075 25.808C52.2555 26.3413 52.8528 26.608 53.5995 26.608C54.6555 26.608 55.3542 26.144 55.6955 25.216H57.6635C57.4075 26.112 56.9275 26.8267 56.2235 27.36C55.5195 27.8827 54.6448 28.144 53.5995 28.144C52.7568 28.144 52.0102 27.9573 51.3595 27.584C50.7088 27.2 50.1968 26.6667 49.8235 25.984C49.4608 25.2907 49.2795 24.4907 49.2795 23.584ZM71.4135 20.192C71.4135 20.7573 71.2802 21.2907 71.0135 21.792C70.7468 22.2933 70.3202 22.704 69.7335 23.024C69.1468 23.3333 68.3948 23.488 67.4775 23.488H65.4615V28H63.6375V16.88H67.4775C68.3308 16.88 69.0508 17.0293 69.6375 17.328C70.2348 17.616 70.6775 18.0107 70.9655 18.512C71.2642 19.0133 71.4135 19.5733 71.4135 20.192ZM67.4775 22C68.1708 22 68.6882 21.8453 69.0295 21.536C69.3708 21.216 69.5415 20.768 69.5415 20.192C69.5415 18.976 68.8535 18.368 67.4775 18.368H65.4615V22H67.4775ZM74.9771 20.464C75.2438 20.016 75.5958 19.6693 76.0331 19.424C76.4811 19.168 77.0091 19.04 77.6171 19.04V20.928H77.1531C76.4385 20.928 75.8945 21.1093 75.5211 21.472C75.1585 21.8347 74.9771 22.464 74.9771 23.36V28H73.1531V19.184H74.9771V20.464ZM83.1178 28.144C82.2858 28.144 81.5338 27.9573 80.8618 27.584C80.1898 27.2 79.6618 26.6667 79.2778 25.984C78.8938 25.2907 78.7018 24.4907 78.7018 23.584C78.7018 22.688 78.8991 21.8933 79.2938 21.2C79.6884 20.5067 80.2271 19.9733 80.9098 19.6C81.5924 19.2267 82.3551 19.04 83.1978 19.04C84.0404 19.04 84.8031 19.2267 85.4858 19.6C86.1684 19.9733 86.7071 20.5067 87.1018 21.2C87.4964 21.8933 87.6938 22.688 87.6938 23.584C87.6938 24.48 87.4911 25.2747 87.0858 25.968C86.6804 26.6613 86.1258 27.2 85.4218 27.584C84.7284 27.9573 83.9604 28.144 83.1178 28.144ZM83.1178 26.56C83.5871 26.56 84.0244 26.448 84.4298 26.224C84.8458 26 85.1818 25.664 85.4378 25.216C85.6938 24.768 85.8218 24.224 85.8218 23.584C85.8218 22.944 85.6991 22.4053 85.4538 21.968C85.2084 21.52 84.8831 21.184 84.4778 20.96C84.0724 20.736 83.6351 20.624 83.1658 20.624C82.6964 20.624 82.2591 20.736 81.8538 20.96C81.4591 21.184 81.1444 21.52 80.9098 21.968C80.6751 22.4053 80.5578 22.944 80.5578 23.584C80.5578 24.5333 80.7978 25.2693 81.2778 25.792C81.7684 26.304 82.3818 26.56 83.1178 26.56ZM93.1929 20.672H91.5609V28H89.7209V20.672H88.6809V19.184H89.7209V18.56C89.7209 17.5467 89.9875 16.8107 90.5209 16.352C91.0649 15.8827 91.9129 15.648 93.0649 15.648V17.168C92.5102 17.168 92.1209 17.2747 91.8969 17.488C91.6729 17.6907 91.5609 18.048 91.5609 18.56V19.184H93.1929V20.672ZM95.7374 18.016C95.4067 18.016 95.1294 17.904 94.9054 17.68C94.6814 17.456 94.5694 17.1787 94.5694 16.848C94.5694 16.5173 94.6814 16.24 94.9054 16.016C95.1294 15.792 95.4067 15.68 95.7374 15.68C96.0574 15.68 96.3294 15.792 96.5534 16.016C96.7774 16.24 96.8894 16.5173 96.8894 16.848C96.8894 17.1787 96.7774 17.456 96.5534 17.68C96.3294 17.904 96.0574 18.016 95.7374 18.016ZM96.6334 19.184V28H94.8094V19.184H96.6334ZM100.852 16.16V28H99.0281V16.16H100.852ZM111.327 23.376C111.327 23.7067 111.306 24.0053 111.263 24.272H104.527C104.58 24.976 104.842 25.5413 105.311 25.968C105.78 26.3947 106.356 26.608 107.039 26.608C108.02 26.608 108.714 26.1973 109.119 25.376H111.087C110.82 26.1867 110.335 26.8533 109.631 27.376C108.938 27.888 108.074 28.144 107.039 28.144C106.196 28.144 105.439 27.9573 104.767 27.584C104.106 27.2 103.583 26.6667 103.199 25.984C102.826 25.2907 102.639 24.4907 102.639 23.584C102.639 22.6773 102.82 21.8827 103.183 21.2C103.556 20.5067 104.074 19.9733 104.735 19.6C105.407 19.2267 106.175 19.04 107.039 19.04C107.871 19.04 108.612 19.2213 109.263 19.584C109.914 19.9467 110.42 20.4587 110.783 21.12C111.146 21.7707 111.327 22.5227 111.327 23.376ZM109.423 22.8C109.412 22.128 109.172 21.5893 108.703 21.184C108.234 20.7787 107.652 20.576 106.959 20.576C106.33 20.576 105.791 20.7787 105.343 21.184C104.895 21.5787 104.628 22.1173 104.543 22.8H109.423Z" fill="white"/>
<path d="M362.904 25.728H358.248L357.448 28H355.544L359.528 16.864H361.64L365.624 28H363.704L362.904 25.728ZM362.392 24.24L360.584 19.072L358.76 24.24H362.392ZM370.908 19.04C371.591 19.04 372.194 19.1787 372.716 19.456C373.25 19.7227 373.666 20.0587 373.964 20.464V19.184H375.804V28.144C375.804 28.9547 375.634 29.6747 375.292 30.304C374.951 30.944 374.455 31.4453 373.804 31.808C373.164 32.1707 372.396 32.352 371.5 32.352C370.306 32.352 369.314 32.0693 368.524 31.504C367.735 30.9493 367.287 30.192 367.18 29.232H368.988C369.127 29.6907 369.42 30.0587 369.868 30.336C370.327 30.624 370.871 30.768 371.5 30.768C372.236 30.768 372.828 30.544 373.276 30.096C373.735 29.648 373.964 28.9973 373.964 28.144V26.672C373.655 27.088 373.234 27.44 372.7 27.728C372.178 28.0053 371.58 28.144 370.908 28.144C370.14 28.144 369.436 27.952 368.796 27.568C368.167 27.1733 367.666 26.6293 367.292 25.936C366.93 25.232 366.748 24.4373 366.748 23.552C366.748 22.6667 366.93 21.8827 367.292 21.2C367.666 20.5173 368.167 19.9893 368.796 19.616C369.436 19.232 370.14 19.04 370.908 19.04ZM373.964 23.584C373.964 22.976 373.836 22.448 373.58 22C373.335 21.552 373.01 21.2107 372.604 20.976C372.199 20.7413 371.762 20.624 371.292 20.624C370.823 20.624 370.386 20.7413 369.98 20.976C369.575 21.2 369.244 21.536 368.988 21.984C368.743 22.4213 368.62 22.944 368.62 23.552C368.62 24.16 368.743 24.6933 368.988 25.152C369.244 25.6107 369.575 25.9627 369.98 26.208C370.396 26.4427 370.834 26.56 371.292 26.56C371.762 26.56 372.199 26.4427 372.604 26.208C373.01 25.9733 373.335 25.632 373.58 25.184C373.836 24.7253 373.964 24.192 373.964 23.584ZM386.28 23.376C386.28 23.7067 386.259 24.0053 386.216 24.272H379.48C379.533 24.976 379.795 25.5413 380.264 25.968C380.733 26.3947 381.309 26.608 381.992 26.608C382.973 26.608 383.667 26.1973 384.072 25.376H386.04C385.773 26.1867 385.288 26.8533 384.584 27.376C383.891 27.888 383.027 28.144 381.992 28.144C381.149 28.144 380.392 27.9573 379.72 27.584C379.059 27.2 378.536 26.6667 378.152 25.984C377.779 25.2907 377.592 24.4907 377.592 23.584C377.592 22.6773 377.773 21.8827 378.136 21.2C378.509 20.5067 379.027 19.9733 379.688 19.6C380.36 19.2267 381.128 19.04 381.992 19.04C382.824 19.04 383.565 19.2213 384.216 19.584C384.867 19.9467 385.373 20.4587 385.736 21.12C386.099 21.7707 386.28 22.5227 386.28 23.376ZM384.376 22.8C384.365 22.128 384.125 21.5893 383.656 21.184C383.187 20.7787 382.605 20.576 381.912 20.576C381.283 20.576 380.744 20.7787 380.296 21.184C379.848 21.5787 379.581 22.1173 379.496 22.8H384.376ZM392.523 19.04C393.216 19.04 393.835 19.184 394.379 19.472C394.934 19.76 395.366 20.1867 395.675 20.752C395.984 21.3173 396.139 22 396.139 22.8V28H394.331V23.072C394.331 22.2827 394.134 21.68 393.739 21.264C393.344 20.8373 392.806 20.624 392.123 20.624C391.44 20.624 390.896 20.8373 390.491 21.264C390.096 21.68 389.899 22.2827 389.899 23.072V28H388.075V19.184H389.899V20.192C390.198 19.8293 390.576 19.5467 391.035 19.344C391.504 19.1413 392 19.04 392.523 19.04ZM400.594 20.672V25.552C400.594 25.8827 400.668 26.1227 400.818 26.272C400.978 26.4107 401.244 26.48 401.618 26.48H402.738V28H401.298C400.476 28 399.847 27.808 399.41 27.424C398.972 27.04 398.754 26.416 398.754 25.552V20.672H397.714V19.184H398.754V16.992H400.594V19.184H402.738V20.672H400.594ZM414.351 28L411.791 23.552H410.399V28H408.575V16.88H412.415C413.268 16.88 413.988 17.0293 414.575 17.328C415.172 17.6267 415.615 18.0267 415.903 18.528C416.202 19.0293 416.351 19.5893 416.351 20.208C416.351 20.9333 416.138 21.5947 415.711 22.192C415.295 22.7787 414.65 23.1787 413.775 23.392L416.527 28H414.351ZM410.399 22.096H412.415C413.098 22.096 413.61 21.9253 413.951 21.584C414.303 21.2427 414.479 20.784 414.479 20.208C414.479 19.632 414.308 19.184 413.967 18.864C413.626 18.5333 413.108 18.368 412.415 18.368H410.399V22.096ZM426.764 23.376C426.764 23.7067 426.743 24.0053 426.7 24.272H419.964C420.018 24.976 420.279 25.5413 420.748 25.968C421.218 26.3947 421.794 26.608 422.476 26.608C423.458 26.608 424.151 26.1973 424.556 25.376H426.524C426.258 26.1867 425.772 26.8533 425.068 27.376C424.375 27.888 423.511 28.144 422.476 28.144C421.634 28.144 420.876 27.9573 420.204 27.584C419.543 27.2 419.02 26.6667 418.636 25.984C418.263 25.2907 418.076 24.4907 418.076 23.584C418.076 22.6773 418.258 21.8827 418.62 21.2C418.994 20.5067 419.511 19.9733 420.172 19.6C420.844 19.2267 421.612 19.04 422.476 19.04C423.308 19.04 424.05 19.2213 424.7 19.584C425.351 19.9467 425.858 20.4587 426.22 21.12C426.583 21.7707 426.764 22.5227 426.764 23.376ZM424.86 22.8C424.85 22.128 424.61 21.5893 424.14 21.184C423.671 20.7787 423.09 20.576 422.396 20.576C421.767 20.576 421.228 20.7787 420.78 21.184C420.332 21.5787 420.066 22.1173 419.98 22.8H424.86ZM427.951 23.584C427.951 22.6773 428.133 21.8827 428.495 21.2C428.869 20.5067 429.381 19.9733 430.031 19.6C430.682 19.2267 431.429 19.04 432.271 19.04C433.338 19.04 434.218 19.296 434.911 19.808C435.615 20.3093 436.09 21.0293 436.335 21.968H434.367C434.207 21.5307 433.951 21.1893 433.599 20.944C433.247 20.6987 432.805 20.576 432.271 20.576C431.525 20.576 430.927 20.8427 430.479 21.376C430.042 21.8987 429.823 22.6347 429.823 23.584C429.823 24.5333 430.042 25.2747 430.479 25.808C430.927 26.3413 431.525 26.608 432.271 26.608C433.327 26.608 434.026 26.144 434.367 25.216H436.335C436.079 26.112 435.599 26.8267 434.895 27.36C434.191 27.8827 433.317 28.144 432.271 28.144C431.429 28.144 430.682 27.9573 430.031 27.584C429.381 27.2 428.869 26.6667 428.495 25.984C428.133 25.2907 427.951 24.4907 427.951 23.584ZM441.977 28.144C441.145 28.144 440.393 27.9573 439.721 27.584C439.049 27.2 438.521 26.6667 438.137 25.984C437.753 25.2907 437.561 24.4907 437.561 23.584C437.561 22.688 437.758 21.8933 438.153 21.2C438.548 20.5067 439.086 19.9733 439.769 19.6C440.452 19.2267 441.214 19.04 442.057 19.04C442.9 19.04 443.662 19.2267 444.345 19.6C445.028 19.9733 445.566 20.5067 445.961 21.2C446.356 21.8933 446.553 22.688 446.553 23.584C446.553 24.48 446.35 25.2747 445.945 25.968C445.54 26.6613 444.985 27.2 444.281 27.584C443.588 27.9573 442.82 28.144 441.977 28.144ZM441.977 26.56C442.446 26.56 442.884 26.448 443.289 26.224C443.705 26 444.041 25.664 444.297 25.216C444.553 24.768 444.681 24.224 444.681 23.584C444.681 22.944 444.558 22.4053 444.313 21.968C444.068 21.52 443.742 21.184 443.337 20.96C442.932 20.736 442.494 20.624 442.025 20.624C441.556 20.624 441.118 20.736 440.713 20.96C440.318 21.184 440.004 21.52 439.769 21.968C439.534 22.4053 439.417 22.944 439.417 23.584C439.417 24.5333 439.657 25.2693 440.137 25.792C440.628 26.304 441.241 26.56 441.977 26.56ZM459.028 19.04C459.722 19.04 460.34 19.184 460.884 19.472C461.439 19.76 461.871 20.1867 462.18 20.752C462.5 21.3173 462.66 22 462.66 22.8V28H460.852V23.072C460.852 22.2827 460.655 21.68 460.26 21.264C459.866 20.8373 459.327 20.624 458.644 20.624C457.962 20.624 457.418 20.8373 457.012 21.264C456.618 21.68 456.42 22.2827 456.42 23.072V28H454.612V23.072C454.612 22.2827 454.415 21.68 454.02 21.264C453.626 20.8373 453.087 20.624 452.404 20.624C451.722 20.624 451.178 20.8373 450.772 21.264C450.378 21.68 450.18 22.2827 450.18 23.072V28H448.356V19.184H450.18V20.192C450.479 19.8293 450.858 19.5467 451.316 19.344C451.775 19.1413 452.266 19.04 452.788 19.04C453.492 19.04 454.122 19.1893 454.676 19.488C455.231 19.7867 455.658 20.2187 455.956 20.784C456.223 20.2507 456.639 19.8293 457.204 19.52C457.77 19.2 458.378 19.04 459.028 19.04ZM475.653 19.04C476.347 19.04 476.965 19.184 477.509 19.472C478.064 19.76 478.496 20.1867 478.805 20.752C479.125 21.3173 479.285 22 479.285 22.8V28H477.477V23.072C477.477 22.2827 477.28 21.68 476.885 21.264C476.491 20.8373 475.952 20.624 475.269 20.624C474.587 20.624 474.043 20.8373 473.637 21.264C473.243 21.68 473.045 22.2827 473.045 23.072V28H471.237V23.072C471.237 22.2827 471.04 21.68 470.645 21.264C470.251 20.8373 469.712 20.624 469.029 20.624C468.347 20.624 467.803 20.8373 467.397 21.264C467.003 21.68 466.805 22.2827 466.805 23.072V28H464.981V19.184H466.805V20.192C467.104 19.8293 467.483 19.5467 467.941 19.344C468.4 19.1413 468.891 19.04 469.413 19.04C470.117 19.04 470.747 19.1893 471.301 19.488C471.856 19.7867 472.283 20.2187 472.581 20.784C472.848 20.2507 473.264 19.8293 473.829 19.52C474.395 19.2 475.003 19.04 475.653 19.04ZM489.686 23.376C489.686 23.7067 489.665 24.0053 489.622 24.272H482.886C482.94 24.976 483.201 25.5413 483.67 25.968C484.14 26.3947 484.716 26.608 485.398 26.608C486.38 26.608 487.073 26.1973 487.478 25.376H489.446C489.18 26.1867 488.694 26.8533 487.99 27.376C487.297 27.888 486.433 28.144 485.398 28.144C484.556 28.144 483.798 27.9573 483.126 27.584C482.465 27.2 481.942 26.6667 481.558 25.984C481.185 25.2907 480.998 24.4907 480.998 23.584C480.998 22.6773 481.18 21.8827 481.542 21.2C481.916 20.5067 482.433 19.9733 483.094 19.6C483.766 19.2267 484.534 19.04 485.398 19.04C486.23 19.04 486.972 19.2213 487.622 19.584C488.273 19.9467 488.78 20.4587 489.142 21.12C489.505 21.7707 489.686 22.5227 489.686 23.376ZM487.782 22.8C487.772 22.128 487.532 21.5893 487.062 21.184C486.593 20.7787 486.012 20.576 485.318 20.576C484.689 20.576 484.15 20.7787 483.702 21.184C483.254 21.5787 482.988 22.1173 482.902 22.8H487.782ZM495.929 19.04C496.623 19.04 497.241 19.184 497.785 19.472C498.34 19.76 498.772 20.1867 499.081 20.752C499.391 21.3173 499.545 22 499.545 22.8V28H497.737V23.072C497.737 22.2827 497.54 21.68 497.145 21.264C496.751 20.8373 496.212 20.624 495.529 20.624C494.847 20.624 494.303 20.8373 493.897 21.264C493.503 21.68 493.305 22.2827 493.305 23.072V28H491.481V19.184H493.305V20.192C493.604 19.8293 493.983 19.5467 494.441 19.344C494.911 19.1413 495.407 19.04 495.929 19.04ZM501.264 23.552C501.264 22.6667 501.445 21.8827 501.808 21.2C502.181 20.5173 502.683 19.9893 503.312 19.616C503.952 19.232 504.661 19.04 505.44 19.04C506.016 19.04 506.581 19.168 507.136 19.424C507.701 19.6693 508.149 20 508.48 20.416V16.16H510.32V28H508.48V26.672C508.181 27.0987 507.765 27.4507 507.232 27.728C506.709 28.0053 506.107 28.144 505.424 28.144C504.656 28.144 503.952 27.952 503.312 27.568C502.683 27.1733 502.181 26.6293 501.808 25.936C501.445 25.232 501.264 24.4373 501.264 23.552ZM508.48 23.584C508.48 22.976 508.352 22.448 508.096 22C507.851 21.552 507.525 21.2107 507.12 20.976C506.715 20.7413 506.277 20.624 505.808 20.624C505.339 20.624 504.901 20.7413 504.496 20.976C504.091 21.2 503.76 21.536 503.504 21.984C503.259 22.4213 503.136 22.944 503.136 23.552C503.136 24.16 503.259 24.6933 503.504 25.152C503.76 25.6107 504.091 25.9627 504.496 26.208C504.912 26.4427 505.349 26.56 505.808 26.56C506.277 26.56 506.715 26.4427 507.12 26.208C507.525 25.9733 507.851 25.632 508.096 25.184C508.352 24.7253 508.48 24.192 508.48 23.584Z" fill="white"/>
<path d="M125.25 21.2501C124.836 21.2501 124.5 21.5859 124.5 22.0001C124.5 22.4143 124.836 22.7501 125.25 22.7501V22.0001V21.2501ZM342.28 22.5305C342.573 22.2376 342.573 21.7627 342.28 21.4698L337.507 16.6968C337.214 16.4039 336.74 16.4039 336.447 16.6968C336.154 16.9897 336.154 17.4646 336.447 17.7575L340.689 22.0001L336.447 26.2428C336.154 26.5357 336.154 27.0105 336.447 27.3034C336.74 27.5963 337.214 27.5963 337.507 27.3034L342.28 22.5305ZM125.25 22.0001V22.7501H341.75V22.0001V21.2501H125.25V22.0001Z" fill="#686868"/>
<path d="M358.008 64.88V71.968C358.008 72.8107 358.227 73.4453 358.664 73.872C359.112 74.2987 359.731 74.512 360.52 74.512C361.32 74.512 361.939 74.2987 362.376 73.872C362.824 73.4453 363.048 72.8107 363.048 71.968V64.88H364.872V71.936C364.872 72.8427 364.675 73.6107 364.28 74.24C363.885 74.8693 363.357 75.3387 362.696 75.648C362.035 75.9573 361.304 76.112 360.504 76.112C359.704 76.112 358.973 75.9573 358.312 75.648C357.661 75.3387 357.144 74.8693 356.76 74.24C356.376 73.6107 356.184 72.8427 356.184 71.936V64.88H358.008ZM369.071 68.48C369.38 68.0747 369.802 67.7333 370.335 67.456C370.868 67.1787 371.471 67.04 372.143 67.04C372.911 67.04 373.61 67.232 374.239 67.616C374.879 67.9893 375.38 68.5173 375.743 69.2C376.106 69.8827 376.287 70.6667 376.287 71.552C376.287 72.4373 376.106 73.232 375.743 73.936C375.38 74.6293 374.879 75.1733 374.239 75.568C373.61 75.952 372.911 76.144 372.143 76.144C371.471 76.144 370.874 76.0107 370.351 75.744C369.828 75.4667 369.402 75.1253 369.071 74.72V80.192H367.247V67.184H369.071V68.48ZM374.431 71.552C374.431 70.944 374.303 70.4213 374.047 69.984C373.802 69.536 373.471 69.2 373.055 68.976C372.65 68.7413 372.212 68.624 371.743 68.624C371.284 68.624 370.847 68.7413 370.431 68.976C370.026 69.2107 369.695 69.552 369.439 70C369.194 70.448 369.071 70.976 369.071 71.584C369.071 72.192 369.194 72.7253 369.439 73.184C369.695 73.632 370.026 73.9733 370.431 74.208C370.847 74.4427 371.284 74.56 371.743 74.56C372.212 74.56 372.65 74.4427 373.055 74.208C373.471 73.9627 373.802 73.6107 374.047 73.152C374.303 72.6933 374.431 72.16 374.431 71.552ZM377.483 71.552C377.483 70.6667 377.664 69.8827 378.027 69.2C378.4 68.5173 378.901 67.9893 379.531 67.616C380.171 67.232 380.88 67.04 381.659 67.04C382.235 67.04 382.8 67.168 383.355 67.424C383.92 67.6693 384.368 68 384.699 68.416V64.16H386.539V76H384.699V74.672C384.4 75.0987 383.984 75.4507 383.451 75.728C382.928 76.0053 382.325 76.144 381.643 76.144C380.875 76.144 380.171 75.952 379.531 75.568C378.901 75.1733 378.4 74.6293 378.027 73.936C377.664 73.232 377.483 72.4373 377.483 71.552ZM384.699 71.584C384.699 70.976 384.571 70.448 384.315 70C384.069 69.552 383.744 69.2107 383.339 68.976C382.933 68.7413 382.496 68.624 382.027 68.624C381.557 68.624 381.12 68.7413 380.715 68.976C380.309 69.2 379.979 69.536 379.723 69.984C379.477 70.4213 379.355 70.944 379.355 71.552C379.355 72.16 379.477 72.6933 379.723 73.152C379.979 73.6107 380.309 73.9627 380.715 74.208C381.131 74.4427 381.568 74.56 382.027 74.56C382.496 74.56 382.933 74.4427 383.339 74.208C383.744 73.9733 384.069 73.632 384.315 73.184C384.571 72.7253 384.699 72.192 384.699 71.584ZM388.326 71.552C388.326 70.6667 388.508 69.8827 388.87 69.2C389.244 68.5173 389.745 67.9893 390.374 67.616C391.014 67.232 391.718 67.04 392.486 67.04C393.18 67.04 393.782 67.1787 394.294 67.456C394.817 67.7227 395.233 68.0587 395.542 68.464V67.184H397.382V76H395.542V74.688C395.233 75.104 394.812 75.4507 394.278 75.728C393.745 76.0053 393.137 76.144 392.454 76.144C391.697 76.144 391.004 75.952 390.374 75.568C389.745 75.1733 389.244 74.6293 388.87 73.936C388.508 73.232 388.326 72.4373 388.326 71.552ZM395.542 71.584C395.542 70.976 395.414 70.448 395.158 70C394.913 69.552 394.588 69.2107 394.182 68.976C393.777 68.7413 393.34 68.624 392.87 68.624C392.401 68.624 391.964 68.7413 391.558 68.976C391.153 69.2 390.822 69.536 390.566 69.984C390.321 70.4213 390.198 70.944 390.198 71.552C390.198 72.16 390.321 72.6933 390.566 73.152C390.822 73.6107 391.153 73.9627 391.558 74.208C391.974 74.4427 392.412 74.56 392.87 74.56C393.34 74.56 393.777 74.4427 394.182 74.208C394.588 73.9733 394.913 73.632 395.158 73.184C395.414 72.7253 395.542 72.192 395.542 71.584ZM401.906 68.672V73.552C401.906 73.8827 401.981 74.1227 402.13 74.272C402.29 74.4107 402.557 74.48 402.93 74.48H404.05V76H402.61C401.789 76 401.159 75.808 400.722 75.424C400.285 75.04 400.066 74.416 400.066 73.552V68.672H399.026V67.184H400.066V64.992H401.906V67.184H404.05V68.672H401.906ZM413.811 71.376C413.811 71.7067 413.79 72.0053 413.747 72.272H407.011C407.065 72.976 407.326 73.5413 407.795 73.968C408.265 74.3947 408.841 74.608 409.523 74.608C410.505 74.608 411.198 74.1973 411.603 73.376H413.571C413.305 74.1867 412.819 74.8533 412.115 75.376C411.422 75.888 410.558 76.144 409.523 76.144C408.681 76.144 407.923 75.9573 407.251 75.584C406.59 75.2 406.067 74.6667 405.683 73.984C405.31 73.2907 405.123 72.4907 405.123 71.584C405.123 70.6773 405.305 69.8827 405.667 69.2C406.041 68.5067 406.558 67.9733 407.219 67.6C407.891 67.2267 408.659 67.04 409.523 67.04C410.355 67.04 411.097 67.2213 411.747 67.584C412.398 67.9467 412.905 68.4587 413.267 69.12C413.63 69.7707 413.811 70.5227 413.811 71.376ZM411.907 70.8C411.897 70.128 411.657 69.5893 411.187 69.184C410.718 68.7787 410.137 68.576 409.443 68.576C408.814 68.576 408.275 68.7787 407.827 69.184C407.379 69.5787 407.113 70.1173 407.027 70.8H411.907ZM414.998 71.552C414.998 70.6667 415.18 69.8827 415.542 69.2C415.916 68.5173 416.417 67.9893 417.046 67.616C417.686 67.232 418.396 67.04 419.174 67.04C419.75 67.04 420.316 67.168 420.87 67.424C421.436 67.6693 421.884 68 422.214 68.416V64.16H424.054V76H422.214V74.672C421.916 75.0987 421.5 75.4507 420.966 75.728C420.444 76.0053 419.841 76.144 419.158 76.144C418.39 76.144 417.686 75.952 417.046 75.568C416.417 75.1733 415.916 74.6293 415.542 73.936C415.18 73.232 414.998 72.4373 414.998 71.552ZM422.214 71.584C422.214 70.976 422.086 70.448 421.83 70C421.585 69.552 421.26 69.2107 420.854 68.976C420.449 68.7413 420.012 68.624 419.542 68.624C419.073 68.624 418.636 68.7413 418.23 68.976C417.825 69.2 417.494 69.536 417.238 69.984C416.993 70.4213 416.87 70.944 416.87 71.552C416.87 72.16 416.993 72.6933 417.238 73.152C417.494 73.6107 417.825 73.9627 418.23 74.208C418.646 74.4427 419.084 74.56 419.542 74.56C420.012 74.56 420.449 74.4427 420.854 74.208C421.26 73.9733 421.585 73.632 421.83 73.184C422.086 72.7253 422.214 72.192 422.214 71.584ZM432.43 74.528H436.19V76H430.606V64.88H432.43V74.528ZM438.644 66.016C438.313 66.016 438.036 65.904 437.812 65.68C437.588 65.456 437.476 65.1787 437.476 64.848C437.476 64.5173 437.588 64.24 437.812 64.016C438.036 63.792 438.313 63.68 438.644 63.68C438.964 63.68 439.236 63.792 439.46 64.016C439.684 64.24 439.796 64.5173 439.796 64.848C439.796 65.1787 439.684 65.456 439.46 65.68C439.236 65.904 438.964 66.016 438.644 66.016ZM439.54 67.184V76H437.716V67.184H439.54ZM445.134 76.144C444.441 76.144 443.817 76.0213 443.262 75.776C442.718 75.52 442.286 75.1787 441.966 74.752C441.646 74.3147 441.476 73.8293 441.454 73.296H443.342C443.374 73.6693 443.55 73.984 443.87 74.24C444.201 74.4853 444.612 74.608 445.102 74.608C445.614 74.608 446.009 74.512 446.286 74.32C446.574 74.1173 446.718 73.8613 446.718 73.552C446.718 73.2213 446.558 72.976 446.238 72.816C445.929 72.656 445.433 72.48 444.75 72.288C444.089 72.1067 443.55 71.9307 443.134 71.76C442.718 71.5893 442.356 71.328 442.046 70.976C441.748 70.624 441.598 70.16 441.598 69.584C441.598 69.1147 441.737 68.688 442.014 68.304C442.292 67.9093 442.686 67.6 443.198 67.376C443.721 67.152 444.318 67.04 444.99 67.04C445.993 67.04 446.798 67.296 447.406 67.808C448.025 68.3093 448.356 68.9973 448.398 69.872H446.574C446.542 69.4773 446.382 69.1627 446.094 68.928C445.806 68.6933 445.417 68.576 444.926 68.576C444.446 68.576 444.078 68.6667 443.822 68.848C443.566 69.0293 443.438 69.2693 443.438 69.568C443.438 69.8027 443.524 70 443.694 70.16C443.865 70.32 444.073 70.448 444.318 70.544C444.564 70.6293 444.926 70.7413 445.406 70.88C446.046 71.0507 446.569 71.2267 446.974 71.408C447.39 71.5787 447.748 71.8347 448.046 72.176C448.345 72.5173 448.5 72.9707 448.51 73.536C448.51 74.0373 448.372 74.4853 448.094 74.88C447.817 75.2747 447.422 75.584 446.91 75.808C446.409 76.032 445.817 76.144 445.134 76.144ZM452.609 68.672V73.552C452.609 73.8827 452.684 74.1227 452.833 74.272C452.993 74.4107 453.26 74.48 453.633 74.48H454.753V76H453.313C452.492 76 451.863 75.808 451.425 75.424C450.988 75.04 450.769 74.416 450.769 73.552V68.672H449.729V67.184H450.769V64.992H452.609V67.184H454.753V68.672H452.609ZM457.362 66.016C457.032 66.016 456.754 65.904 456.53 65.68C456.306 65.456 456.194 65.1787 456.194 64.848C456.194 64.5173 456.306 64.24 456.53 64.016C456.754 63.792 457.032 63.68 457.362 63.68C457.682 63.68 457.954 63.792 458.178 64.016C458.402 64.24 458.514 64.5173 458.514 64.848C458.514 65.1787 458.402 65.456 458.178 65.68C457.954 65.904 457.682 66.016 457.362 66.016ZM458.258 67.184V76H456.434V67.184H458.258ZM465.101 67.04C465.794 67.04 466.413 67.184 466.957 67.472C467.512 67.76 467.944 68.1867 468.253 68.752C468.562 69.3173 468.717 70 468.717 70.8V76H466.909V71.072C466.909 70.2827 466.712 69.68 466.317 69.264C465.922 68.8373 465.384 68.624 464.701 68.624C464.018 68.624 463.474 68.8373 463.069 69.264C462.674 69.68 462.477 70.2827 462.477 71.072V76H460.653V67.184H462.477V68.192C462.776 67.8293 463.154 67.5467 463.613 67.344C464.082 67.1413 464.578 67.04 465.101 67.04ZM474.596 67.04C475.278 67.04 475.881 67.1787 476.404 67.456C476.937 67.7227 477.353 68.0587 477.652 68.464V67.184H479.492V76.144C479.492 76.9547 479.321 77.6747 478.98 78.304C478.638 78.944 478.142 79.4453 477.492 79.808C476.852 80.1707 476.084 80.352 475.188 80.352C473.993 80.352 473.001 80.0693 472.212 79.504C471.422 78.9493 470.974 78.192 470.868 77.232H472.676C472.814 77.6907 473.108 78.0587 473.556 78.336C474.014 78.624 474.558 78.768 475.188 78.768C475.924 78.768 476.516 78.544 476.964 78.096C477.422 77.648 477.652 76.9973 477.652 76.144V74.672C477.342 75.088 476.921 75.44 476.388 75.728C475.865 76.0053 475.268 76.144 474.596 76.144C473.828 76.144 473.124 75.952 472.484 75.568C471.854 75.1733 471.353 74.6293 470.98 73.936C470.617 73.232 470.436 72.4373 470.436 71.552C470.436 70.6667 470.617 69.8827 470.98 69.2C471.353 68.5173 471.854 67.9893 472.484 67.616C473.124 67.232 473.828 67.04 474.596 67.04ZM477.652 71.584C477.652 70.976 477.524 70.448 477.268 70C477.022 69.552 476.697 69.2107 476.292 68.976C475.886 68.7413 475.449 68.624 474.98 68.624C474.51 68.624 474.073 68.7413 473.668 68.976C473.262 69.2 472.932 69.536 472.676 69.984C472.43 70.4213 472.308 70.944 472.308 71.552C472.308 72.16 472.43 72.6933 472.676 73.152C472.932 73.6107 473.262 73.9627 473.668 74.208C474.084 74.4427 474.521 74.56 474.98 74.56C475.449 74.56 475.886 74.4427 476.292 74.208C476.697 73.9733 477.022 73.632 477.268 73.184C477.524 72.7253 477.652 72.192 477.652 71.584ZM485.436 70.416C485.436 69.328 485.686 68.352 486.188 67.488C486.7 66.624 487.388 65.952 488.252 65.472C489.126 64.9813 490.081 64.736 491.116 64.736C492.3 64.736 493.35 65.0293 494.268 65.616C495.196 66.192 495.868 67.0133 496.284 68.08H494.092C493.804 67.4933 493.404 67.056 492.892 66.768C492.38 66.48 491.788 66.336 491.116 66.336C490.38 66.336 489.724 66.5013 489.148 66.832C488.572 67.1627 488.118 67.6373 487.788 68.256C487.468 68.8747 487.308 69.5947 487.308 70.416C487.308 71.2373 487.468 71.9573 487.788 72.576C488.118 73.1947 488.572 73.6747 489.148 74.016C489.724 74.3467 490.38 74.512 491.116 74.512C491.788 74.512 492.38 74.368 492.892 74.08C493.404 73.792 493.804 73.3547 494.092 72.768H496.284C495.868 73.8347 495.196 74.656 494.268 75.232C493.35 75.808 492.3 76.096 491.116 76.096C490.07 76.096 489.116 75.856 488.252 75.376C487.388 74.8853 486.7 74.208 486.188 73.344C485.686 72.48 485.436 71.504 485.436 70.416ZM497.811 71.552C497.811 70.6667 497.992 69.8827 498.355 69.2C498.728 68.5173 499.229 67.9893 499.859 67.616C500.499 67.232 501.203 67.04 501.971 67.04C502.664 67.04 503.267 67.1787 503.779 67.456C504.301 67.7227 504.717 68.0587 505.027 68.464V67.184H506.867V76H505.027V74.688C504.717 75.104 504.296 75.4507 503.763 75.728C503.229 76.0053 502.621 76.144 501.939 76.144C501.181 76.144 500.488 75.952 499.859 75.568C499.229 75.1733 498.728 74.6293 498.355 73.936C497.992 73.232 497.811 72.4373 497.811 71.552ZM505.027 71.584C505.027 70.976 504.899 70.448 504.643 70C504.397 69.552 504.072 69.2107 503.667 68.976C503.261 68.7413 502.824 68.624 502.355 68.624C501.885 68.624 501.448 68.7413 501.043 68.976C500.637 69.2 500.307 69.536 500.051 69.984C499.805 70.4213 499.683 70.944 499.683 71.552C499.683 72.16 499.805 72.6933 500.051 73.152C500.307 73.6107 500.637 73.9627 501.043 74.208C501.459 74.4427 501.896 74.56 502.355 74.56C502.824 74.56 503.261 74.4427 503.667 74.208C504.072 73.9733 504.397 73.632 504.643 73.184C504.899 72.7253 505.027 72.192 505.027 71.584ZM511.087 68.464C511.353 68.016 511.705 67.6693 512.143 67.424C512.591 67.168 513.119 67.04 513.727 67.04V68.928H513.263C512.548 68.928 512.004 69.1093 511.631 69.472C511.268 69.8347 511.087 70.464 511.087 71.36V76H509.263V67.184H511.087V68.464ZM514.795 71.552C514.795 70.6667 514.976 69.8827 515.339 69.2C515.712 68.5173 516.214 67.9893 516.843 67.616C517.483 67.232 518.192 67.04 518.971 67.04C519.547 67.04 520.112 67.168 520.667 67.424C521.232 67.6693 521.68 68 522.011 68.416V64.16H523.851V76H522.011V74.672C521.712 75.0987 521.296 75.4507 520.763 75.728C520.24 76.0053 519.638 76.144 518.955 76.144C518.187 76.144 517.483 75.952 516.843 75.568C516.214 75.1733 515.712 74.6293 515.339 73.936C514.976 73.232 514.795 72.4373 514.795 71.552ZM522.011 71.584C522.011 70.976 521.883 70.448 521.627 70C521.382 69.552 521.056 69.2107 520.651 68.976C520.246 68.7413 519.808 68.624 519.339 68.624C518.87 68.624 518.432 68.7413 518.027 68.976C517.622 69.2 517.291 69.536 517.035 69.984C516.79 70.4213 516.667 70.944 516.667 71.552C516.667 72.16 516.79 72.6933 517.035 73.152C517.291 73.6107 517.622 73.9627 518.027 74.208C518.443 74.4427 518.88 74.56 519.339 74.56C519.808 74.56 520.246 74.4427 520.651 74.208C521.056 73.9733 521.382 73.632 521.627 73.184C521.883 72.7253 522.011 72.192 522.011 71.584Z" fill="white"/>
<path d="M125.25 21.25C124.836 21.25 124.5 21.5858 124.5 22C124.5 22.4142 124.836 22.75 125.25 22.75V22V21.25ZM342.28 70.5303C342.573 70.2374 342.573 69.7626 342.28 69.4697L337.507 64.6967C337.214 64.4038 336.74 64.4038 336.447 64.6967C336.154 64.9896 336.154 65.4645 336.447 65.7574L340.689 70L336.447 74.2426C336.154 74.5355 336.154 75.0104 336.447 75.3033C336.74 75.5962 337.214 75.5962 337.507 75.3033L342.28 70.5303ZM125.25 22V22.75H209.5V22V21.25H125.25V22ZM257.5 70V70.75H341.75V70V69.25H257.5V70ZM233.5 46H232.75C232.75 59.669 243.831 70.75 257.5 70.75V70V69.25C244.659 69.25 234.25 58.8406 234.25 46H233.5ZM209.5 22V22.75C222.341 22.75 232.75 33.1594 232.75 46H233.5H234.25C234.25 32.331 223.169 21.25 209.5 21.25V22Z" fill="#686868"/>
</svg>
