<svg width="120" height="120" viewBox="0 0 120 120" fill="none" xmlns="http://www.w3.org/2000/svg">
<rect width="120" height="120" rx="60" fill="#BAFF61"/>
<path d="M82.3886 61.9737L65.6795 78.6829C65.1563 79.206 64.4467 79.4999 63.7068 79.4999C62.967 79.4999 62.2574 79.206 61.7342 78.6829C61.2111 78.1597 60.9171 77.4501 60.9171 76.7102C60.9171 75.9704 61.2111 75.2608 61.7342 74.7376L73.6883 62.7883H39.5737C38.8351 62.7883 38.1267 62.4948 37.6045 61.9726C37.0822 61.4503 36.7888 60.742 36.7888 60.0034C36.7888 59.2648 37.0822 58.5565 37.6045 58.0342C38.1267 57.5119 38.8351 57.2185 39.5737 57.2185H73.6883L61.7389 45.2622C61.2157 44.739 60.9218 44.0294 60.9218 43.2896C60.9218 42.5497 61.2157 41.8401 61.7389 41.317C62.262 40.7938 62.9716 40.4999 63.7115 40.4999C64.4514 40.4999 65.1609 40.7938 65.6841 41.317L82.3933 58.0261C82.6529 58.2852 82.8589 58.593 82.9992 58.9319C83.1396 59.2708 83.2116 59.6341 83.2112 60.0009C83.2108 60.3677 83.1379 60.7308 82.9967 61.0693C82.8556 61.4079 82.6489 61.7152 82.3886 61.9737Z" fill="black"/>
</svg>
