<svg width="25" height="36" viewBox="0 0 25 36" fill="none" xmlns="http://www.w3.org/2000/svg">
<path d="M24.6304 12.3159C24.6304 9.04951 23.3329 5.91693 21.0234 3.60726C18.7139 1.29759 15.5816 3.01865e-05 12.3155 2.99399e-05C9.04939 2.96933e-05 5.91705 1.29759 3.60756 3.60726C1.29808 5.91693 0.000620165 9.04951 0.000619671 12.3159L5.66546 12.3159C5.66546 10.552 6.36609 8.86044 7.61321 7.61322C8.86033 6.366 10.5518 5.66532 12.3155 5.66532C14.0792 5.66532 15.7707 6.366 17.0178 7.61322C18.2649 8.86044 18.9655 10.552 18.9655 12.3159H24.6304Z" fill="#BAFF61"/>
<path d="M5.68421 26.5263H2.31901e-06L0 0L5.68421 3.78947L5.68421 26.5263Z" fill="#BAFF61"/>
<path d="M18.9474 11.3684H24.6319V26.5263L18.9477 22.7368L18.9474 11.3684Z" fill="#BAFF61"/>
<path d="M9.47369 36V30.3154L24.6316 30.3154V35.9997L9.47369 36Z" fill="#BAFF61"/>
<path d="M15.1579 30.3153L15.1579 35.9999H3.07942e-06L2.65028e-06 30.3157L15.1579 30.3153Z" fill="#BAFF61"/>
</svg>
