<svg width="40" height="40" viewBox="0 0 40 40" fill="none" xmlns="http://www.w3.org/2000/svg">
<path d="M7.68604 25.6841C7.68604 28.9505 8.9835 32.0831 11.293 34.3927C13.6025 36.7024 16.7348 38 20.0009 38C23.267 38 26.3994 36.7024 28.7088 34.3927C31.0183 32.0831 32.3158 28.9505 32.3158 25.6841L26.6509 25.6841C26.6509 27.448 25.9503 29.1396 24.7032 30.3868C23.4561 31.634 21.7646 32.3347 20.0009 32.3347C18.2372 32.3347 16.5458 31.634 15.2986 30.3868C14.0515 29.1396 13.3509 27.448 13.3509 25.6841L7.68604 25.6841Z" fill="#BAFF61"/>
<path d="M26.6322 11.4737L32.3164 11.4737L32.3164 38L26.6322 34.2105L26.6322 11.4737Z" fill="#BAFF61"/>
<path d="M13.369 26.6316L7.68448 26.6316L7.68448 11.4737L13.3687 15.2632L13.369 26.6316Z" fill="#BAFF61"/>
<path d="M22.8427 2L22.8427 7.68456L7.68483 7.68456L11.4746 2L22.8427 2Z" fill="#BAFF61"/>
<path d="M17.1585 7.68467L17.1585 2.00011L28.7088 2.00011L32.3164 7.68433L17.1585 7.68467Z" fill="#BAFF61"/>
</svg>
