<svg width="40" height="40" viewBox="0 0 40 40" fill="none" xmlns="http://www.w3.org/2000/svg">
<path d="M32.314 14.3159C32.314 11.0495 31.0165 7.91693 28.707 5.60726C26.3975 3.29759 23.2652 2.00003 19.9991 2.00003C16.733 2.00003 13.6006 3.29759 11.2912 5.60726C8.98167 7.91693 7.68421 11.0495 7.68421 14.3159L13.3491 14.3159C13.3491 12.552 14.0497 10.8604 15.2968 9.61322C16.5439 8.366 18.2354 7.66532 19.9991 7.66532C21.7628 7.66532 23.4542 8.366 24.7014 9.61322C25.9485 10.8604 26.6491 12.552 26.6491 14.3159H32.314Z" fill="#BAFF61"/>
<path d="M13.3678 28.5263H7.6836L7.68359 2L13.3678 5.78947L13.3678 28.5263Z" fill="#BAFF61"/>
<path d="M26.631 13.3684H32.3155V28.5263L26.6313 24.7368L26.631 13.3684Z" fill="#BAFF61"/>
<path d="M17.1573 38V32.3154L32.3152 32.3154V37.9997L17.1573 38Z" fill="#BAFF61"/>
<path d="M22.8415 32.3153L22.8415 37.9999H7.6836L7.6836 32.3157L22.8415 32.3153Z" fill="#BAFF61"/>
</svg>
